<svg xmlns="http://www.w3.org/2000/svg" width="800" height="1000" viewBox="0 0 800 1000"><rect width="100%" height="100%" fill="#2a2a2a"/><path fill="#ffffff" d="M165.085 504.78q.27 0 .49.21l1.32 1.44q-1.1 1.36-2.71 2.08-1.6.73-3.85.73-2.01 0-3.62-.69t-2.74-1.91q-1.14-1.23-1.75-2.93-.6-1.7-.6-3.71 0-2.04.65-3.73t1.83-2.92q1.18-1.22 2.82-1.9 1.63-.69 3.62-.69 1.98 0 3.51.65t2.6 1.7l-1.12 1.57q-.1.15-.26.26-.15.11-.43.11-.19 0-.39-.1-.2-.11-.43-.27-.24-.15-.55-.34-.32-.19-.73-.34-.41-.16-.96-.27-.54-.1-1.25-.1-1.21 0-2.22.43t-1.73 1.25q-.73.82-1.13 2t-.4 2.69q0 1.53.43 2.71.44 1.19 1.17 2 .74.82 1.74 1.25t2.15.43q.69 0 1.24-.08.56-.07 1.03-.23.47-.17.89-.42.42-.26.83-.63.12-.12.26-.18.14-.07.29-.07m7.49 1.48h7.22v2.78h-10.59v-18.07h3.37zm13-15.29v18.07h-3.38v-18.07zm21.27 9.03q0 1.99-.66 3.68-.65 1.7-1.85 2.93-1.2 1.24-2.89 1.94-1.69.69-3.75.69-2.05 0-3.74-.69-1.68-.7-2.89-1.94-1.21-1.23-1.87-2.93-.66-1.69-.66-3.68t.66-3.68 1.87-2.93 2.89-1.93q1.69-.7 3.74-.7 1.38 0 2.59.32t2.22.9q1.02.58 1.82 1.42.81.83 1.37 1.85.56 1.03.86 2.23.29 1.2.29 2.52m-3.44 0q0-1.49-.4-2.67t-1.13-2q-.74-.83-1.8-1.27-1.05-.43-2.38-.43-1.32 0-2.38.43-1.06.44-1.8 1.27-.74.82-1.14 2t-.4 2.67.4 2.67 1.14 2 1.8 1.26q1.06.43 2.38.43 1.33 0 2.38-.43 1.06-.44 1.8-1.26.73-.82 1.13-2t.4-2.67m5.72 7.34q0-.39.14-.74t.39-.6.6-.4.75-.15.75.15q.34.15.6.4.25.25.4.6t.15.74q0 .4-.15.74-.15.35-.4.6-.26.25-.6.39-.35.15-.75.15t-.75-.15q-.35-.14-.6-.39t-.39-.6q-.14-.34-.14-.74m0-8.91q0-.39.14-.74t.39-.6.6-.4.75-.15.75.15q.34.15.6.4.25.25.4.6t.15.74q0 .4-.15.74t-.4.59q-.26.25-.6.4-.35.14-.75.14t-.75-.14q-.35-.15-.6-.4t-.39-.59-.14-.74m16.56 1.62h2.51q.93 0 1.61-.23.69-.23 1.15-.66.45-.43.68-1.05.22-.62.22-1.38 0-.73-.22-1.32-.23-.58-.68-1-.45-.41-1.13-.63-.69-.22-1.63-.22h-2.51zm-3.36-9.08h5.87q1.81 0 3.14.42 1.32.42 2.19 1.19.86.76 1.28 1.82t.42 2.33q0 1.31-.44 2.4-.44 1.1-1.31 1.88-.88.79-2.2 1.23t-3.08.44h-2.51v6.36h-3.36zm18.83 8.6h2.1q.95 0 1.66-.24t1.16-.66q.46-.42.68-.99.23-.58.23-1.27 0-1.37-.91-2.11-.9-.74-2.77-.74h-2.15zm6.23 2.79 4.52 6.68h-3.03q-.87 0-1.25-.68l-3.8-5.78q-.22-.33-.47-.47-.26-.13-.76-.13h-1.44v7.06h-3.36v-18.07h5.51q1.84 0 3.16.38t2.16 1.06q.85.69 1.25 1.65.4.95.4 2.1 0 .92-.27 1.73t-.78 1.47q-.5.67-1.25 1.17-.74.5-1.69.78.32.19.6.45.27.25.5.6m9.86-11.39v18.07h-3.37v-18.07zm14.5 1.69-.84 1.59q-.15.26-.32.38-.16.12-.41.12-.27 0-.57-.19-.31-.2-.73-.43-.43-.24-1-.43-.57-.2-1.34-.2-.7 0-1.23.17-.52.17-.88.47-.35.3-.53.72-.17.42-.17.92 0 .63.35 1.06.36.42.95.72.58.3 1.33.54t1.54.51 1.54.62q.75.36 1.34.9.58.55.94 1.33.36.79.36 1.92 0 1.22-.42 2.29t-1.23 1.86q-.8.8-1.97 1.25-1.16.46-2.66.46-.86 0-1.7-.17t-1.61-.48q-.76-.31-1.44-.75-.67-.44-1.2-.98l.99-1.61q.12-.17.32-.29t.43-.12q.31 0 .67.26.37.25.87.56.5.32 1.16.57.67.26 1.61.26 1.44 0 2.23-.68.78-.68.78-1.96 0-.71-.35-1.16-.36-.45-.95-.76-.58-.3-1.33-.52-.75-.21-1.53-.46-.77-.25-1.52-.6t-1.34-.91-.95-1.41q-.35-.84-.35-2.08 0-.99.39-1.92.4-.94 1.15-1.67.75-.72 1.85-1.16t2.52-.44q1.6 0 2.95.5t2.3 1.4m20.31-1.69h2.54v18.07h-2.96v-11.68q0-.7.07-1.51l-5.46 10.26q-.39.74-1.19.74h-.47q-.8 0-1.19-.74l-5.52-10.3.06.82q.02.4.02.73v11.68h-2.96v-18.07h2.54q.22 0 .39.01.16.01.29.06t.24.16q.1.11.2.3l5.42 10.04q.21.4.39.82.18.43.36.88.17-.46.36-.89.19-.44.4-.84l5.34-10.01q.1-.19.21-.3t.24-.16.3-.06q.16-.01.38-.01m24.5 0h3.38v18.07h-3.38v-7.9h-8.48v7.9h-3.38v-18.07h3.38v7.77h8.48zm10.78 0v18.07h-3.38v-18.07zm12.94 9.01h6v7.31q-1.38 1.01-2.94 1.48-1.55.47-3.33.47-2.21 0-4-.69-1.8-.69-3.07-1.91-1.26-1.23-1.95-2.93t-.69-3.71q0-2.04.66-3.74.67-1.7 1.88-2.92 1.22-1.23 2.96-1.9 1.74-.68 3.9-.68 1.1 0 2.06.18.95.17 1.77.48t1.5.74q.67.44 1.23.97l-.96 1.52q-.22.36-.59.45-.36.08-.78-.19-.42-.23-.83-.47t-.92-.41q-.5-.18-1.14-.29-.63-.11-1.45-.11-1.34 0-2.42.45t-1.84 1.28q-.77.84-1.18 2.02-.41 1.17-.41 2.62 0 1.55.44 2.77.45 1.22 1.25 2.06.81.85 1.95 1.29 1.13.44 2.53.44 1 0 1.79-.21t1.54-.57v-3.28h-2.28q-.32 0-.5-.18t-.18-.44zm21.11-9.01h3.37v18.07h-3.37v-7.9h-8.49v7.9h-3.37v-18.07h3.37v7.77h8.49zm10.76 15.29h7.23v2.78h-10.59v-18.07h3.36zm13-15.29v18.07h-3.37v-18.07zm12.94 9.01h6v7.31q-1.38 1.01-2.93 1.48-1.56.47-3.33.47-2.22 0-4.01-.69t-3.06-1.91q-1.27-1.23-1.96-2.93t-.69-3.71q0-2.04.67-3.74.66-1.7 1.88-2.92 1.22-1.23 2.95-1.9 1.74-.68 3.9-.68 1.1 0 2.06.18.96.17 1.77.48.82.31 1.5.74.67.44 1.24.97l-.97 1.52q-.22.36-.58.45-.37.08-.79-.19-.41-.23-.83-.47-.41-.24-.92-.41-.5-.18-1.13-.29t-1.46-.11q-1.34 0-2.42.45t-1.84 1.28q-.76.84-1.18 2.02-.41 1.17-.41 2.62 0 1.55.44 2.77.45 1.22 1.25 2.06.81.85 1.95 1.29t2.54.44q1 0 1.78-.21.79-.21 1.54-.57v-3.28h-2.27q-.33 0-.51-.18t-.18-.44zm21.11-9.01h3.38v18.07h-3.38v-7.9h-8.49v7.9h-3.37v-18.07h3.37v7.77h8.49zm20.03 0v2.76h-5.45v15.31h-3.37v-15.31h-5.45v-2.76zm13.77 2.67h-8.02v5.01h6.32v2.59h-6.32v5.11h8.02v2.69h-11.4v-18.07h11.4zm6.34 5.93h2.1q.95 0 1.65-.24.71-.24 1.17-.66.45-.42.68-.99.22-.58.22-1.27 0-1.37-.9-2.11-.91-.74-2.77-.74h-2.15zm6.22 2.79 4.53 6.68h-3.04q-.86 0-1.25-.68l-3.8-5.78q-.21-.33-.47-.47-.25-.13-.75-.13h-1.44v7.06h-3.36v-18.07h5.51q1.84 0 3.15.38 1.32.38 2.17 1.06.84.69 1.24 1.65.4.95.4 2.1 0 .92-.27 1.73t-.77 1.47q-.51.67-1.25 1.17-.75.5-1.7.78.33.19.6.45.28.25.5.6m24.43-2.36q0 2.36-.51 4.11-.5 1.74-1.4 2.88-.89 1.14-2.11 1.69-1.22.56-2.63.56t-2.62-.56q-1.21-.55-2.09-1.69-.89-1.14-1.39-2.88-.5-1.75-.5-4.11 0-2.37.5-4.11t1.39-2.88q.88-1.13 2.09-1.69t2.62-.56 2.63.56 2.11 1.69q.9 1.14 1.4 2.88.51 1.74.51 4.11m-3.19 0q0-1.96-.29-3.25-.28-1.29-.77-2.05-.48-.76-1.1-1.07-.63-.3-1.3-.3-.66 0-1.28.3-.62.31-1.1 1.07-.47.76-.75 2.05t-.28 3.25.28 3.25.75 2.05q.48.76 1.1 1.07t1.28.31q.67 0 1.3-.31.62-.31 1.1-1.07.49-.76.77-2.05.29-1.29.29-3.25m13.5 6.73h3.25v2.31h-10v-2.31h3.66v-10.54q0-.63.04-1.29l-2.6 2.18q-.22.17-.44.22-.22.04-.42 0-.19-.04-.34-.13t-.22-.21l-.98-1.33 5.51-4.69h2.54zm21.8-6.75h6v7.31q-1.37 1.01-2.93 1.48t-3.33.47q-2.21 0-4.01-.69-1.79-.69-3.06-1.91-1.27-1.23-1.96-2.93-.68-1.7-.68-3.71 0-2.04.66-3.74t1.88-2.92q1.22-1.23 2.96-1.9 1.73-.68 3.9-.68 1.1 0 2.05.18.96.17 1.78.48t1.49.74q.68.44 1.24.97l-.96 1.52q-.23.36-.59.45-.36.08-.79-.19-.41-.23-.82-.47-.42-.24-.92-.41-.51-.18-1.14-.29t-1.46-.11q-1.33 0-2.42.45-1.08.45-1.84 1.28-.76.84-1.17 2.02-.42 1.17-.42 2.62 0 1.55.45 2.77.44 1.22 1.25 2.06.8.85 1.94 1.29t2.54.44q1 0 1.79-.21.78-.21 1.53-.57v-3.28h-2.27q-.33 0-.51-.18t-.18-.44zm26.49.02q0 1.99-.66 3.68-.65 1.7-1.85 2.93-1.2 1.24-2.89 1.94-1.69.69-3.75.69-2.05 0-3.74-.69-1.69-.7-2.89-1.94-1.21-1.23-1.87-2.93-.66-1.69-.66-3.68t.66-3.68 1.87-2.93q1.2-1.24 2.89-1.93 1.69-.7 3.74-.7 1.37 0 2.59.32 1.21.32 2.22.9t1.82 1.42q.81.83 1.37 1.85.56 1.03.85 2.23.3 1.2.3 2.52m-3.44 0q0-1.49-.4-2.67t-1.14-2q-.73-.83-1.79-1.27-1.06-.43-2.38-.43-1.33 0-2.38.43-1.06.44-1.8 1.27-.75.82-1.15 2t-.4 2.67.4 2.67 1.15 2q.74.82 1.8 1.26 1.05.43 2.38.43 1.32 0 2.38-.43 1.06-.44 1.79-1.26.74-.82 1.14-2t.4-2.67m9.76 6.26h7.23v2.78h-10.59v-18.07h3.36zm25.68-6.26q0 1.99-.66 3.65-.67 1.66-1.87 2.86t-2.88 1.87q-1.69.66-3.75.66h-6.89v-18.07h6.89q2.06 0 3.75.66 1.68.67 2.88 1.87 1.2 1.19 1.87 2.85.66 1.66.66 3.65m-3.45 0q0-1.49-.4-2.67-.39-1.18-1.13-2-.75-.82-1.8-1.25-1.06-.44-2.38-.44h-3.52v12.72h3.52q1.32 0 2.38-.43 1.05-.44 1.8-1.26.74-.82 1.13-2 .4-1.18.4-2.67m22.95-7.34-.84 1.59q-.15.26-.32.38t-.42.12q-.26 0-.57-.19-.3-.2-.73-.43-.42-.24-.99-.43-.57-.2-1.34-.2-.7 0-1.23.17-.52.17-.88.47t-.53.72q-.18.42-.18.92 0 .63.36 1.06.36.42.94.72.59.3 1.34.54t1.54.51 1.54.62q.75.36 1.33.9.59.55.95 1.33.35.79.35 1.92 0 1.22-.42 2.29-.41 1.07-1.22 1.86-.81.8-1.97 1.25-1.16.46-2.66.46-.86 0-1.7-.17t-1.61-.48-1.44-.75q-.68-.44-1.2-.98l.99-1.61q.12-.17.32-.29t.43-.12q.31 0 .67.26.36.25.86.56.5.32 1.17.57.67.26 1.61.26 1.44 0 2.22-.68.79-.68.79-1.96 0-.71-.36-1.16-.35-.45-.94-.76-.59-.3-1.34-.52-.75-.21-1.52-.46-.78-.25-1.53-.6t-1.33-.91q-.59-.56-.95-1.41-.35-.84-.35-2.08 0-.99.39-1.92.39-.94 1.14-1.67.75-.72 1.85-1.16t2.53-.44q1.6 0 2.95.5t2.3 1.4m15.11-1.69h3.38v18.07h-3.38v-7.9h-8.49v7.9h-3.37v-18.07h3.37v7.77h8.49zm18.8 2.67h-8.02v5.01h6.32v2.59h-6.32v5.11h8.02v2.69h-11.4v-18.07h11.4zm14.38 0h-8.03v5.01h6.33v2.59h-6.33v5.11h8.03v2.69h-11.4v-18.07h11.4z"/></svg>